<svg width="20" height="20" viewBox="0 0 20 20" fill="none" xmlns="http://www.w3.org/2000/svg">
<path d="M7.91666 18.3333C7.04956 18.3326 6.19209 18.1514 5.39879 17.8014C4.60548 17.4513 3.8937 16.94 3.3087 16.3C2.7237 15.6599 2.27827 14.9052 2.00076 14.0837C1.72324 13.2622 1.61969 12.3919 1.69671 11.5282C1.77372 10.6645 2.02961 9.82634 2.4481 9.0669C2.86659 8.30747 3.43853 7.64342 4.12754 7.11699C4.81656 6.59056 5.60758 6.21326 6.45031 6.00908C7.29303 5.8049 8.16902 5.77831 9.02258 5.931C9.1303 5.95029 9.23317 5.9906 9.32531 6.04965C9.41745 6.10869 9.49706 6.1853 9.5596 6.27511C9.62213 6.36492 9.66636 6.46617 9.68976 6.57307C9.71317 6.67998 9.71529 6.79044 9.696 6.89817C9.67671 7.00589 9.63639 7.10876 9.57735 7.2009C9.51831 7.29304 9.44169 7.37265 9.35188 7.43518C9.26207 7.49771 9.16083 7.54195 9.05392 7.56535C8.94702 7.58875 8.83655 7.59087 8.72883 7.57158C7.80235 7.40468 6.84694 7.52708 5.99245 7.92216C5.13797 8.31723 4.42584 8.96582 3.95286 9.77977C3.47988 10.5937 3.26897 11.5336 3.34881 12.4716C3.42865 13.4096 3.79536 14.3003 4.3991 15.0226C5.00284 15.7449 5.81434 16.2638 6.7233 16.5087C7.63227 16.7537 8.59462 16.7129 9.47957 16.3918C10.3645 16.0707 11.1291 15.485 11.6695 14.7141C12.2099 13.9433 12.4999 13.0247 12.5 12.0833C12.5033 10.8795 12.0297 9.72326 11.1828 8.86758C11.0278 8.71013 10.9416 8.49753 10.9433 8.27654C10.9449 8.05555 11.0343 7.84428 11.1918 7.68921C11.3492 7.53413 11.5618 7.44796 11.7828 7.44964C12.0038 7.45132 12.2151 7.54072 12.3702 7.69817C13.2346 8.57606 13.8202 9.68984 14.0536 10.8996C14.2869 12.1093 14.1575 13.361 13.6816 14.4974C13.2057 15.6338 12.4046 16.6042 11.3789 17.2867C10.3532 17.9692 9.14868 18.3333 7.91666 18.3333Z" fill="white"/>
<path d="M11.8335 8.99983C11.6687 8.9998 11.5076 8.95091 11.3706 8.85934C11.2336 8.76777 11.1268 8.63763 11.0638 8.48538C11.0007 8.33313 10.9842 8.1656 11.0163 8.00397C11.0485 7.84235 11.1278 7.69388 11.2443 7.57733L16.9108 1.91083C16.9882 1.83328 17.08 1.77174 17.1812 1.72972C17.2823 1.6877 17.3907 1.66603 17.5002 1.66595C17.6098 1.66588 17.7182 1.68739 17.8194 1.72927C17.9206 1.77114 18.0126 1.83255 18.09 1.91C18.1674 1.98744 18.2289 2.07939 18.2707 2.18058C18.3126 2.28178 18.3341 2.39024 18.334 2.49976C18.334 2.60927 18.3123 2.7177 18.2703 2.81884C18.2283 2.91998 18.1667 3.01184 18.0892 3.08917L12.4227 8.75567C12.3454 8.83318 12.2536 8.89465 12.1525 8.93655C12.0513 8.97846 11.9429 8.99996 11.8335 8.99983Z" fill="white"/>
<path d="M17.5 8.33333C17.279 8.33331 17.067 8.2455 16.9108 8.08923C16.7545 7.93295 16.6667 7.721 16.6667 7.5V3.33333H12.5C12.279 3.33333 12.067 3.24553 11.9107 3.08925C11.7545 2.93297 11.6667 2.72101 11.6667 2.5C11.6667 2.27898 11.7545 2.06702 11.9107 1.91074C12.067 1.75446 12.279 1.66666 12.5 1.66666H17.5C17.721 1.66669 17.933 1.75449 18.0892 1.91077C18.2455 2.06704 18.3333 2.27899 18.3333 2.5V7.5C18.3333 7.721 18.2455 7.93295 18.0892 8.08923C17.933 8.2455 17.721 8.33331 17.5 8.33333Z" fill="white"/>
</svg>
