<svg width="20" height="20" viewBox="0 0 20 20" fill="none" xmlns="http://www.w3.org/2000/svg">
<path d="M12.0833 14.1667C11.7125 14.1667 11.3425 14.134 10.9774 14.069C10.8697 14.0497 10.7668 14.0094 10.6747 13.9504C10.5825 13.8913 10.5029 13.8147 10.4404 13.7249C10.3779 13.6351 10.3336 13.5338 10.3102 13.4269C10.2868 13.32 10.2847 13.2096 10.304 13.1018C10.3233 12.9941 10.3636 12.8912 10.4226 12.7991C10.4817 12.707 10.5583 12.6274 10.6481 12.5648C10.7379 12.5023 10.8392 12.4581 10.9461 12.4347C11.053 12.4113 11.1634 12.4091 11.2712 12.4284C12.1977 12.5953 13.1531 12.4729 14.0075 12.0778C14.862 11.6828 15.5742 11.0342 16.0471 10.2202C16.5201 9.40628 16.731 8.46644 16.6512 7.52844C16.5713 6.59043 16.2046 5.69975 15.6009 4.97745C14.9972 4.25514 14.1857 3.73624 13.2767 3.49126C12.3677 3.24628 11.4054 3.28711 10.5204 3.60819C9.63548 3.92928 8.87085 4.51505 8.33046 5.28589C7.79006 6.05674 7.50011 6.97527 7.5 7.91667C7.49675 9.12055 7.97032 10.2767 8.81717 11.1324C8.89395 11.2104 8.95463 11.3027 8.99574 11.4041C9.03684 11.5055 9.05757 11.614 9.05674 11.7235C9.05591 11.8329 9.03353 11.9411 8.99089 12.0418C8.94824 12.1426 8.88617 12.234 8.80821 12.3108C8.73025 12.3876 8.63793 12.4483 8.53651 12.4894C8.4351 12.5305 8.32659 12.5512 8.21717 12.5504C8.10774 12.5495 7.99956 12.5272 7.89878 12.4845C7.79801 12.4419 7.70662 12.3798 7.62983 12.3018C6.61674 11.273 5.99113 9.9251 5.8593 8.48722C5.72748 7.04934 6.09757 5.61016 6.9067 4.41425C7.71582 3.21834 8.91407 2.33947 10.2978 1.92699C11.6816 1.51451 13.1654 1.59385 14.4973 2.15155C15.8292 2.70925 16.9268 3.71089 17.6038 4.98627C18.2808 6.26164 18.4953 7.73208 18.2109 9.1477C17.9265 10.5633 17.1607 11.8368 16.0437 12.7518C14.9266 13.6667 13.5272 14.1667 12.0833 14.1667Z" fill="white"/>
<path d="M2.5 18.3333C2.33521 18.3333 2.17413 18.2844 2.03712 18.1928C1.90011 18.1013 1.79333 17.9711 1.73027 17.8189C1.66721 17.6666 1.65071 17.4991 1.68285 17.3375C1.71499 17.1758 1.79433 17.0274 1.91084 16.9108L7.43167 11.39C7.588 11.2341 7.79982 11.1466 8.02059 11.1468C8.24137 11.1469 8.45305 11.2347 8.60917 11.3908C8.76528 11.5469 8.85305 11.7586 8.85321 11.9794C8.85336 12.2002 8.76589 12.412 8.61 12.5683L3.08917 18.0892C3.0119 18.1667 2.92007 18.2281 2.81896 18.27C2.71785 18.3119 2.60945 18.3335 2.5 18.3333Z" fill="white"/>
<path d="M7.5 18.3333C7.39056 18.3335 7.28216 18.312 7.18105 18.2701C7.07994 18.2282 6.98811 18.1667 6.91084 18.0892L1.91084 13.0892C1.75495 12.9328 1.66748 12.721 1.66763 12.5002C1.66779 12.2795 1.75556 12.0678 1.91167 11.9117C2.06779 11.7556 2.27947 11.6678 2.50025 11.6676C2.72102 11.6675 2.93284 11.7549 3.08917 11.9108L8.08917 16.9108C8.20568 17.0274 8.28502 17.1758 8.31716 17.3375C8.3493 17.4991 8.33279 17.6666 8.26974 17.8189C8.20668 17.9711 8.09989 18.1013 7.96289 18.1928C7.82588 18.2844 7.6648 18.3333 7.5 18.3333Z" fill="white"/>
</svg>
