<svg width="50" height="51" viewBox="0 0 50 51" fill="none" xmlns="http://www.w3.org/2000/svg">
<path d="M17.7083 25C17.7067 24.7258 17.7592 24.454 17.8629 24.2002C17.9666 23.9464 18.1194 23.7155 18.3124 23.5208L26.6458 15.1875C27.0381 14.7952 27.5701 14.5748 28.1249 14.5748C28.6797 14.5748 29.2118 14.7952 29.6041 15.1875C29.9964 15.5798 30.2168 16.1119 30.2168 16.6667C30.2168 17.2215 29.9964 17.7535 29.6041 18.1458L22.7083 25L29.3333 31.875C29.5464 32.0666 29.7176 32.3002 29.8364 32.5611C29.9551 32.8219 30.0187 33.1045 30.0232 33.391C30.0278 33.6776 29.9732 33.962 29.8628 34.2265C29.7524 34.491 29.5886 34.7299 29.3816 34.9282C29.1747 35.1265 28.9291 35.28 28.6602 35.379C28.3912 35.4781 28.1047 35.5205 27.8186 35.5038C27.5325 35.4871 27.2529 35.4115 26.9973 35.2818C26.7417 35.1521 26.5157 34.9711 26.3333 34.75L18.2916 26.4167C17.9243 26.0357 17.7157 25.5292 17.7083 25Z" fill="white"/>
<circle cx="25" cy="26" r="25" fill="#D9D9D9" fill-opacity="0.5"/>
</svg>
