<svg width="32" height="35" viewBox="0 0 32 35" fill="none" xmlns="http://www.w3.org/2000/svg">
<path d="M25.7027 0H6.29722C3.31073 0 0.881104 2.20368 0.881104 4.91229V33.0728C0.881104 33.5943 1.20247 34.0721 1.71376 34.3108C2.22506 34.5495 2.84055 34.5089 3.30835 34.2057L16 25.9835L28.6917 34.2057C28.9571 34.3776 29.2697 34.465 29.584 34.465C29.824 34.465 30.0649 34.414 30.2863 34.3106C30.7976 34.072 31.1189 33.5942 31.1189 33.0727V4.91229C31.1189 2.20368 28.6892 0 25.7027 0ZM28.0488 30.3675L16.8922 23.1398C16.6253 22.9669 16.3126 22.8805 16 22.8805C15.6873 22.8805 15.3747 22.967 15.1078 23.1398L3.95109 30.3675V4.91229C3.95109 3.73899 5.00358 2.7844 6.29722 2.7844H25.7027C26.9963 2.7844 28.0488 3.73899 28.0488 4.91229V30.3675Z" fill="#D9D9D9"/>
</svg>
