<svg width="30" height="34" viewBox="0 0 30 34" fill="none" xmlns="http://www.w3.org/2000/svg">
<path fill-rule="evenodd" clip-rule="evenodd" d="M3.34672e-07 4.2499C3.34672e-07 3.12276 0.526784 2.04178 1.46447 1.24477C2.40215 0.447756 3.67392 0 5 0L25 0C26.3261 0 27.5979 0.447756 28.5355 1.24477C29.4732 2.04178 30 3.12276 30 4.2499V32.9367C30.0002 33.1213 29.9438 33.3026 29.8364 33.463C29.7291 33.6233 29.5745 33.7572 29.3878 33.8513C29.2011 33.9454 28.9888 33.9966 28.7717 33.9998C28.5547 34.003 28.3404 33.9582 28.15 33.8696L15 27.771L1.85 33.8696C1.65957 33.9582 1.4453 34.003 1.22826 33.9998C1.01123 33.9966 0.798917 33.9454 0.612229 33.8513C0.425541 33.7572 0.270912 33.6233 0.163561 33.463C0.0562113 33.3026 -0.000158485 33.1213 3.34672e-07 32.9367V4.2499Z" fill="#D9D9D9"/>
</svg>
